<svg xmlns="http://www.w3.org/2000/svg" viewBox="0 0 121 117" width="121" height="117" role="img" aria-label="Maintenance tools">
  <path d="M 32 8 L 29 9 L 26 9 L 23 11 L 20 11 L 17 14 L 14 15 L 11 20 L 9 21 L 7 25 L 6 28 L 5 32 L 5 36 L 6 40 L 7 43 L 9 46 L 12 50 L 16 53 L 20 55 L 24 56 L 28 56 L 34 54 L 47 67 L 10 104 L 10 107 L 17 114 L 20 114 L 57 77 L 89 109 L 94 113 L 98 114 L 104 114 L 110 111 L 113 107 L 115 102 L 114 96 L 111 91 L 78 58 L 83 53 L 86 53 L 87 51 L 87 48 L 101 34 L 104 34 L 105 32 L 105 29 L 119 15 L 119 12 L 110 3 L 107 3 L 93 17 L 90 17 L 88 19 L 88 22 L 74 36 L 71 36 L 69 38 L 69 41 L 64 46 L 48 30 L 50 24 L 50 20 L 49 16 L 47 13 L 44 10 L 40 8 Z M 30 14 L 36 14 L 41 18 L 43 22 L 43 27 L 40 31 L 35 35 L 28 29 L 30 20 L 26 16 Z M 109 10 L 112 13 L 99 26 L 96 26 L 94 28 L 94 31 L 81 44 L 78 44 L 76 46 L 76 49 L 72 53 L 67 48 L 72 43 L 72 40 L 74 38 L 77 38 L 90 25 L 90 22 L 92 20 L 95 20 Z M 19 26 L 28 35 L 34 35 L 40 32 L 108 100 L 108 104 L 104 108 L 100 108 L 32 40 L 29 41 L 25 43 L 21 43 L 17 41 L 14 37 L 13 32 L 15 28 Z M 52 72 L 57 77 L 20 108 L 15 103 Z" fill="#001cff" fill-rule="evenodd"/>
</svg>
