<svg xmlns="http://www.w3.org/2000/svg" viewBox="0 0 150 84" role="img" aria-label="Air handling unit"><g fill="none" stroke="#0891b2" stroke-width="3" stroke-linecap="round" stroke-linejoin="round"><line x1="4" y1="42" x2="14" y2="42"/><rect x="14" y="12" width="122" height="60" rx="5" fill="#e6f7fb"/><line x1="45" y1="12" x2="45" y2="72"/><line x1="78" y1="12" x2="78" y2="72"/><line x1="107" y1="12" x2="107" y2="72"/><path d="M24 58l5-32 5 32 5-32" stroke="#0e7490" stroke-width="2.5"/><path d="M53 56V28c0-4 7-4 7 0v28c0 4 7 4 7 0V28" stroke="#2563eb" stroke-width="3"/><circle cx="93" cy="42" r="11" fill="#fff"/><path d="M93 38c-2-6 2-8 7-9 0 5-2 8-6 11M95 44c6 2 7 6 6 10-5-1-7-4-7-9M90 44c-4 5-8 4-11 2 3-4 6-5 10-3" fill="#bfeaf3" stroke-width="1.5"/><path d="M115 52l6-20 6 20" stroke="#f97316" stroke-width="3"/><text x="75" y="81" fill="#0e7490" stroke="none" font-size="8" font-weight="800" font-family="Arial" text-anchor="middle">AHU</text><line x1="136" y1="42" x2="146" y2="42"/></g></svg>