<svg xmlns="http://www.w3.org/2000/svg" viewBox="0 0 120 84" role="img" aria-label="HVAC heating coil"><g fill="none" stroke="#0891b2" stroke-width="3" stroke-linecap="round" stroke-linejoin="round"><line x1="5" y1="42" x2="22" y2="42"/><rect x="22" y="16" width="76" height="52" rx="4" fill="#e6f7fb"/><path d="M33 58V26c0-5 8-5 8 0v32c0 5 8 5 8 0V26c0-5 8-5 8 0v32c0 5 8 5 8 0V26c0-5 8-5 8 0v32c0 5 8 5 8 0V26" stroke="#f97316" stroke-width="4"/><path d="M87 28l4-6 4 6M87 56l4 6 4-6" stroke="#0e7490" stroke-width="2"/><line x1="98" y1="42" x2="115" y2="42"/></g></svg>